<svg width="40" height="40" viewBox="0 0 40 40" fill="none" xmlns="http://www.w3.org/2000/svg">
<g filter="url(#filter0_d_139_7385)">
<rect x="4" y="4" width="32" height="32" rx="8" fill="white"/>
</g>
<path d="M19.9999 26.0604C16.2784 26.0604 13.2499 23.0319 13.2499 19.3104C13.2499 15.5889 16.2784 12.5604 19.9999 12.5604C23.7214 12.5604 26.7499 15.5889 26.7499 19.3104C26.7499 23.0319 23.7214 26.0604 19.9999 26.0604ZM19.9999 11.0604C15.4511 11.0604 11.7499 14.7616 11.7499 19.3104C11.7499 21.6976 12.7751 23.8449 14.4019 25.3531C14.2853 25.3854 14.1786 25.4462 14.0914 25.5301L12.7196 26.9026C12.6501 26.9723 12.5949 27.0549 12.5572 27.1459C12.5196 27.2369 12.5002 27.3343 12.5003 27.4328C12.5003 27.5312 12.5197 27.6287 12.5574 27.7196C12.5951 27.8106 12.6504 27.8932 12.72 27.9628C12.7896 28.0323 12.8723 28.0875 12.9633 28.1252C13.0542 28.1628 13.1517 28.1822 13.2502 28.1821C13.3486 28.1821 13.4461 28.1627 13.537 28.125C13.6279 28.0873 13.7106 28.032 13.7801 27.9624L15.1519 26.5906C15.2737 26.465 15.347 26.3002 15.3589 26.1256C16.7253 27.0619 18.3434 27.5622 19.9999 27.5604C21.6716 27.5604 23.2264 27.0579 24.5269 26.1999C24.5497 26.3468 24.617 26.4831 24.7196 26.5906L26.0914 27.9631C26.1609 28.033 26.2435 28.0885 26.3345 28.1263C26.4255 28.1642 26.5231 28.1837 26.6216 28.1837C26.7202 28.1837 26.8178 28.1642 26.9088 28.1263C26.9998 28.0885 27.0824 28.033 27.1519 27.9631C27.2216 27.8935 27.2769 27.8108 27.3147 27.7197C27.3524 27.6287 27.3719 27.5311 27.3719 27.4325C27.3719 27.334 27.3524 27.2364 27.3147 27.1453C27.2769 27.0543 27.2216 26.9715 27.1519 26.9019L25.7801 25.5301C25.7169 25.4693 25.6432 25.4203 25.5626 25.3854C27.2096 23.8764 28.2499 21.7149 28.2499 19.3104C28.2499 14.7616 24.5486 11.0604 19.9999 11.0604ZM20.7499 19.1664V14.8104C20.7499 14.6115 20.6709 14.4207 20.5302 14.2801C20.3896 14.1394 20.1988 14.0604 19.9999 14.0604C19.801 14.0604 19.6102 14.1394 19.4696 14.2801C19.3289 14.4207 19.2499 14.6115 19.2499 14.8104V19.4769C19.2499 19.6756 19.3286 19.8669 19.4696 20.0071L21.9844 22.5219C22.0539 22.5918 22.1365 22.6472 22.2275 22.6851C22.3185 22.7229 22.4161 22.7424 22.5146 22.7424C22.6132 22.7424 22.7108 22.7229 22.8018 22.6851C22.8928 22.6472 22.9754 22.5918 23.0449 22.5219C23.1855 22.3812 23.2645 22.1905 23.2645 21.9916C23.2645 21.7928 23.1855 21.602 23.0449 21.4614L20.7499 19.1664ZM12.2801 13.7124L14.4019 11.5899C14.5351 11.4478 14.6079 11.2594 14.6047 11.0647C14.6015 10.8699 14.5227 10.684 14.3849 10.5463C14.2472 10.4087 14.0612 10.33 13.8664 10.327C13.6717 10.3239 13.4834 10.3968 13.3414 10.5301L11.2196 12.6519C11.15 12.7215 11.0948 12.8042 11.0571 12.8952C11.0194 12.9861 11 13.0837 11 13.1821C11 13.2806 11.0194 13.3781 11.0571 13.4691C11.0948 13.5601 11.15 13.6428 11.2196 13.7124C11.2893 13.782 11.3719 13.8373 11.4629 13.8749C11.5539 13.9126 11.6514 13.932 11.7499 13.932C11.8484 13.932 11.9459 13.9126 12.0369 13.8749C12.1278 13.8373 12.2105 13.782 12.2801 13.7124ZM28.7156 12.3406L26.5946 10.2196C26.525 10.15 26.4423 10.0948 26.3514 10.0571C26.2604 10.0194 26.1629 10 26.0644 10C25.9659 10 25.8684 10.0194 25.7774 10.0571C25.6864 10.0948 25.6038 10.15 25.5341 10.2196C25.4645 10.2893 25.4093 10.3719 25.3716 10.4629C25.3339 10.5539 25.3145 10.6514 25.3145 10.7499C25.3145 10.8484 25.3339 10.9459 25.3716 11.0369C25.4093 11.1278 25.4645 11.2105 25.5341 11.2801L27.6551 13.4011C27.7246 13.471 27.8072 13.5265 27.8982 13.5643C27.9892 13.6022 28.0868 13.6217 28.1854 13.6217C28.2839 13.6217 28.3815 13.6022 28.4725 13.5643C28.5635 13.5265 28.6461 13.471 28.7156 13.4011C28.7853 13.3315 28.8406 13.2489 28.8784 13.1579C28.9161 13.0669 28.9355 12.9694 28.9355 12.8709C28.9355 12.7724 28.9161 12.6749 28.8784 12.5839C28.8406 12.4929 28.7853 12.4102 28.7156 12.3406Z" fill="url(#paint0_linear_139_7385)"/>
<defs>
<filter id="filter0_d_139_7385" x="0" y="0" width="40" height="40" filterUnits="userSpaceOnUse" color-interpolation-filters="sRGB">
<feFlood flood-opacity="0" result="BackgroundImageFix"/>
<feColorMatrix in="SourceAlpha" type="matrix" values="0 0 0 0 0 0 0 0 0 0 0 0 0 0 0 0 0 0 127 0" result="hardAlpha"/>
<feOffset/>
<feGaussianBlur stdDeviation="2"/>
<feComposite in2="hardAlpha" operator="out"/>
<feColorMatrix type="matrix" values="0 0 0 0 0 0 0 0 0 0 0 0 0 0 0 0 0 0 0.1 0"/>
<feBlend mode="normal" in2="BackgroundImageFix" result="effect1_dropShadow_139_7385"/>
<feBlend mode="normal" in="SourceGraphic" in2="effect1_dropShadow_139_7385" result="shape"/>
</filter>
<linearGradient id="paint0_linear_139_7385" x1="31.0402" y1="32.9569" x2="-0.408152" y2="25.3981" gradientUnits="userSpaceOnUse">
<stop stop-color="#0049FF"/>
<stop offset="1" stop-color="#D645ED"/>
</linearGradient>
</defs>
</svg>
